<svg width="1080" height="1080" viewBox="0 0 1080 1080" fill="none" xmlns="http://www.w3.org/2000/svg">
<g clip-path="url(#clip0_154_344)">
<g clip-path="url(#clip1_154_344)">
<path d="M539.68 1080.18C838.19 1080.18 1080.18 838.19 1080.18 539.68C1080.18 241.17 838.19 -0.819824 539.68 -0.819824C241.17 -0.819824 -0.819824 241.17 -0.819824 539.68C-0.819824 838.19 241.17 1080.18 539.68 1080.18Z" fill="#218BD9"/>
<mask id="mask0_154_344" style="mask-type:luminance" maskUnits="userSpaceOnUse" x="-2" y="-2" width="1082" height="1082">
<path d="M539.14 1079.01C837.65 1079.01 1079.64 837.019 1079.64 538.509C1079.64 239.999 837.65 -1.99097 539.14 -1.99097C240.63 -1.99097 -1.36035 239.999 -1.36035 538.509C-1.36035 837.019 240.63 1079.01 539.14 1079.01Z" fill="white"/>
</mask>
<g mask="url(#mask0_154_344)">
<path d="M437.526 88.9931V88.9932C437.526 109.242 453.941 125.657 474.19 125.657L604.63 125.657C624.879 125.657 641.294 109.242 641.294 88.9931C641.294 68.7442 624.879 52.3293 604.63 52.3293L474.19 52.3293C453.941 52.3293 437.526 68.7442 437.526 88.9931Z" fill="#E8ECF1"/>
<path d="M725.072 245.288V245.288C725.072 274.542 748.787 298.257 778.041 298.257L1016.94 298.257C1046.2 298.257 1069.91 274.542 1069.91 245.288C1069.91 216.034 1046.2 192.319 1016.94 192.319L778.041 192.319C748.787 192.319 725.072 216.034 725.072 245.288Z" fill="#E8ECF1"/>
<path d="M788.31 323.12V323.12C788.31 352.374 812.025 376.089 841.279 376.089L1080.18 376.089C1109.43 376.089 1133.15 352.374 1133.15 323.12C1133.15 293.866 1109.43 270.151 1080.18 270.151L841.279 270.151C812.025 270.151 788.31 293.866 788.31 323.12Z" fill="#E8ECF1"/>
<path d="M-67.8416 159.021V178.266C-67.8416 207.937 -39.8789 231.99 -5.3852 231.99H214.541C249.035 231.99 276.997 207.937 276.997 178.266V159.021C276.997 129.351 249.035 105.298 214.541 105.298L-5.3852 105.298C-39.8789 105.298 -67.8416 129.351 -67.8416 159.021Z" fill="#E8ECF1"/>
<path d="M-153.781 685.795V685.795C-153.781 726.467 -120.81 759.438 -80.1382 759.438L117.415 759.438C158.087 759.438 191.058 726.467 191.058 685.795C191.058 645.123 158.087 612.152 117.415 612.152L-80.1382 612.152C-120.81 612.152 -153.781 645.123 -153.781 685.795Z" fill="#E8ECF1"/>
<path d="M-240.261 598.504V598.505C-240.261 639.177 -207.29 672.148 -166.618 672.148L30.9348 672.148C71.6067 672.148 104.578 639.177 104.578 598.504C104.578 557.833 71.6067 524.861 30.9348 524.861L-166.618 524.861C-207.29 524.861 -240.261 557.833 -240.261 598.504Z" fill="#E8ECF1"/>
<path d="M840.198 741.669V741.669C840.198 772.528 865.214 797.544 896.072 797.544L1129.16 797.544C1160.02 797.544 1185.04 772.528 1185.04 741.669C1185.04 710.811 1160.02 685.795 1129.16 685.795L896.072 685.795C865.214 685.795 840.198 710.811 840.198 741.669Z" fill="#E8ECF1"/>
<path d="M365.099 320.789L365.099 325.45C365.099 339.592 376.563 351.057 390.705 351.057L484.346 351.057C498.488 351.057 509.953 339.592 509.953 325.45L509.953 320.789C509.953 306.647 498.488 295.183 484.346 295.183L390.705 295.183C376.563 295.183 365.099 306.647 365.099 320.789Z" fill="#E8ECF1"/>
<path d="M675.886 568.237L675.886 572.898C675.886 587.04 687.351 598.504 701.493 598.504L795.134 598.504C809.276 598.504 820.74 587.04 820.74 572.898L820.74 568.237C820.74 554.095 809.276 542.63 795.134 542.63L701.493 542.63C687.351 542.63 675.886 554.095 675.886 568.237Z" fill="#E8ECF1"/>
<path d="M299.969 891.46L299.969 895.336C299.969 914.294 315.337 929.662 334.294 929.662L466.168 929.662C485.126 929.662 500.494 914.294 500.494 895.336L500.494 891.46C500.494 872.502 485.126 857.134 466.168 857.134L334.294 857.134C315.337 857.134 299.969 872.502 299.969 891.46Z" fill="#E8ECF1"/>
<path d="M523.955 570.567H375.96C354.14 570.567 336.452 588.255 336.452 610.075V610.075C336.452 631.894 354.14 649.582 375.96 649.582H523.955C545.774 649.582 563.462 631.894 563.462 610.075C563.462 588.255 545.774 570.567 523.955 570.567Z" fill="#48CB60"/>
<path d="M545.626 775.392V775.392C545.626 794.016 560.724 809.114 579.348 809.114L682.702 809.114C701.326 809.114 716.424 794.016 716.424 775.392C716.424 756.767 701.326 741.669 682.702 741.669L579.348 741.669C560.724 741.669 545.626 756.767 545.626 775.392Z" fill="#E8ECF1"/>
</g>
<path d="M506.425 539.5H436.729C424.632 539.5 414.825 549.307 414.825 561.405V566.176C414.825 578.273 424.632 588.08 436.729 588.08H506.425C518.523 588.08 528.33 578.273 528.33 566.176V561.405C528.33 549.307 518.523 539.5 506.425 539.5Z" fill="#48CB60"/>
<path opacity="0.15" d="M539.14 -0.819824C837.65 -0.819824 1079.64 241.17 1079.64 539.68C1079.64 838.19 837.65 1080.18 539.14 1080.18" fill="#01001B"/>
<circle cx="540" cy="540" r="540" fill="#0E012E" fill-opacity="0.05"/>
</g>
</g>
<defs>
<clipPath id="clip0_154_344">
<rect width="1080" height="1080" fill="white"/>
</clipPath>
<clipPath id="clip1_154_344">
<rect width="1081" height="1081" fill="white" transform="translate(-1 -1)"/>
</clipPath>
</defs>
</svg>
